<svg xmlns="http://www.w3.org/2000/svg" viewBox="0 0 1548 510" width="1548" height="510" role="img" aria-label="A Nightmare on 80s Street"><title>A Nightmare on 80s Street — one-color, light ink, R2 candidate</title>
<path fill="#FFFFFF" fill-rule="evenodd" d="M332.1 21.1Q339 21 340.8 22.4Q342.7 23.8 352.3 58.5Q361.9 93.1 362.7 97.8Q363.5 102.5 362.4 104.1Q361.3 105.8 356.2 105.8Q351.2 105.8 347.5 99.8Q343.8 93.7 333.1 92.9Q322.5 92 317.3 99.1Q312.1 106.1 306.2 105.4Q300.3 104.8 310.7 65Q321.2 25.2 323.2 23.2Q325.2 21.2 332.1 21.1ZM327.8 57.8Q324 70 324.8 70.9Q325.6 71.9 330.3 72.2Q335 72.5 336.5 72Q338.1 71.6 338.5 69.8Q338.9 68.1 336.3 57.6Q333.8 47.2 332.7 46.4Q331.6 45.6 327.8 57.8ZM507.3 62.1Q513 62 523.7 64.2Q534.5 66.5 541.2 65.2Q548 64 549.5 65.3Q551 66.5 554.2 85.5Q557.5 104.5 555 129.5Q552.5 154.5 554.3 161Q556 167.5 560.4 171.6Q564.7 175.8 567.8 174.1Q570.9 172.4 571.6 169.9Q572.4 167.4 571.5 142.5Q570.5 117.5 575.2 98.5Q579.9 79.4 586.1 74.1Q592.3 68.8 598.3 69Q604.3 69.2 614.2 78.8Q624.1 88.4 625 92.7Q626 97 625.3 114.8Q624.5 132.5 628.3 154.7Q632 177 630.7 190Q629.5 203 630.6 239.1Q631.8 275.3 615.9 279.2Q600.1 283.1 590.2 289.4Q580.2 295.7 577.6 269.7Q574.9 243.6 572.7 238.3Q570.6 232.9 568.2 231.6Q565.8 230.3 562.8 233.3Q559.7 236.2 557.4 241.6Q555.1 247.1 554.9 280.6Q554.7 314.2 548.1 315.6Q541.5 317 537 316.1Q532.6 315.1 528.8 318.8Q525 322.4 518.9 317.6Q512.8 312.7 506.6 312.1Q500.5 311.5 500.7 306.8Q501 302 498.5 289.3Q496 276.5 495.8 266.8Q495.5 257 497.5 246.8Q499.5 236.5 495.3 217.5Q491 198.5 493 182.7Q495 167 495 153Q495 139 492 124Q489 109 490.5 103.7Q492 98.5 491.6 93.5Q491.2 88.5 493 77.8Q494.7 67.2 498.2 64.7Q501.7 62.2 507.3 62.1ZM1097.2 63.2Q1100.3 63.2 1102.5 65.2Q1104.8 67.2 1105.5 78.3Q1106.2 89.3 1112.5 104Q1118.8 118.7 1122.4 139.6Q1126 160.5 1126 169.7Q1126.1 178.9 1134.9 217.4Q1143.7 255.8 1148 266Q1152.2 276.3 1159.6 286.9Q1167.1 297.6 1162.5 300.5Q1158 303.5 1140.3 302.7Q1122.6 301.9 1117.8 297.7Q1113 293.5 1106.8 296.2Q1100.7 298.8 1099.4 297.8Q1098.1 296.9 1096.6 286.7Q1095.1 276.4 1088.7 274.8Q1082.4 273.1 1069.7 272.1Q1057 271 1052.9 272.6Q1048.7 274.2 1042.9 287.4Q1037.1 300.6 1026.4 301.2Q1015.7 301.8 1013.6 300.4Q1011.4 299.1 1007.9 292.4Q1004.3 285.7 997.2 263.3Q990 241 993.5 206.8Q997 172.5 1002.6 137.1Q1008.2 101.7 1010.1 98.9Q1012 96 1017.8 95.3Q1023.5 94.5 1037.9 85.4Q1052.2 76.2 1065 74.5Q1077.8 72.8 1086 68Q1094.2 63.2 1097.2 63.2ZM210.8 72.1Q223 72 234.7 74.1Q246.4 76.1 252.2 77.8Q258.1 79.4 260.2 82.8Q262.4 86.1 261.2 108.3Q260 130.5 260.7 182.7Q261.5 235 259.3 243.8Q257 252.5 257.3 261.5Q257.5 270.5 255.2 281.7Q253 293 253.5 300.7Q254 308.5 251.8 319.7Q249.6 331 253.3 340.8Q257 350.5 256.1 373.2Q255.3 395.8 253.1 397.9Q251 400 245.7 398.3Q240.4 396.6 235 396.6Q229.6 396.6 218.5 400.5Q207.5 404.5 204.4 402.5Q201.4 400.6 196.8 391.7Q192.2 382.8 190.1 366.4Q187.9 350.1 179.7 330.5Q171.6 310.9 169.2 298.8Q166.8 286.7 160.4 272.7Q154 258.7 153.3 261.4Q152.5 264 153.7 270Q155 276 155 290.3Q155 304.5 152.3 317.7Q149.5 331 150.8 335.3Q152 339.5 153.4 371.7Q154.8 403.8 153.1 405.6Q151.5 407.5 144.2 410.5Q137 413.5 130.7 411.3Q124.4 409.1 117.2 409Q110.1 408.9 105.9 406.3Q101.8 403.7 95.4 402.9Q89 402.1 82.6 405.4Q76.2 408.8 75.4 407.1Q74.5 405.5 74.5 374.3Q74.5 343 76.8 321.8Q79 300.5 78 284.8Q77 269 73.5 255.5Q70.1 241.9 69.6 232.2Q69 222.5 69.6 155.8Q70.2 89.2 72.1 86.1Q74 83 79 82.3Q84 81.5 93.7 81.8Q103.4 82.1 110 84.3Q116.5 86.5 125.5 86.5Q134.5 86.5 139.5 85.2Q144.5 84 147.3 85Q150.1 85.9 157.4 96.1Q164.8 106.2 171.6 128.9Q178.3 151.7 190.2 171Q202 190.3 201 179.9Q199.9 169.6 196 156Q192 142.5 192 127.2Q192 112 190.6 101.3Q189.2 90.5 194 81.4Q198.7 72.2 210.8 72.1ZM731.1 92.3Q753 94 779 93.8Q805 93.5 813.3 100Q821.6 106.4 837.5 106.3Q853.4 106.1 855.2 108.3Q857 110.5 856.3 112.3Q855.6 114.1 852.8 115.3Q849.9 116.4 837.2 117.7Q824.6 119.1 811.7 125.7Q798.8 132.3 785.7 133.2Q772.6 134.1 754.1 140.4Q735.7 146.7 735.3 157.1Q735 167.5 731.2 187.7Q727.5 208 727.8 217.5Q728 227 730.2 236Q732.5 245 728.4 271.2Q724.4 297.4 722 301.7Q719.6 306.1 714.3 311Q709 316 707.2 315Q705.4 314.1 701.4 307.4Q697.4 300.6 689.1 294.1Q680.9 287.6 678.5 283.8Q676.1 279.9 675.3 257.5Q674.5 235 672.2 219.5Q670 204 672 184.2Q674 164.5 673.4 160.3Q672.8 156.2 670.3 154.2Q667.9 152.1 654.2 150.8Q640.6 149.4 637.5 148Q634.4 146.6 631.7 140.8Q629.1 134.9 629 124.7Q629 114.5 630.1 105.6Q631.1 96.6 633.4 94.4Q635.7 92.2 657.3 93.1Q679 94 694.1 92.3Q709.2 90.7 731.1 92.3ZM948.1 99.9Q950 101.5 948.5 108.5Q947.1 115.4 953.2 129.5Q959.4 143.6 958.8 156.2Q958.1 168.9 961.5 174.5Q964.8 180.2 974.5 214.8Q984.2 249.3 995.5 273Q1006.8 296.7 1006.1 299Q1005.4 301.4 1002.7 302.1Q1000.1 302.9 996.2 301Q992.4 299.1 985.5 298.5Q978.6 297.9 971 295.2Q963.5 292.5 953.8 294.3Q944.2 296.2 942 298.8Q939.9 301.4 936.1 301Q932.4 300.6 929.4 297.8Q926.4 295.1 924.6 291.2Q922.7 287.3 920.1 269.8Q917.5 252.2 908.5 272.2Q899.6 292.1 894.5 295.4Q889.3 298.8 886.6 298.1Q883.9 297.4 881.5 303Q879.1 308.6 873.3 311.5Q867.4 314.4 861.8 314.4Q856.1 314.4 854.3 313Q852.4 311.6 850.1 304.2Q847.8 296.7 843.4 290.9Q839 285 832.8 270Q826.5 255 824.5 253Q822.4 251.1 820.6 251.2Q818.7 251.2 817 253Q815.2 254.7 813.2 271.2Q811.3 287.8 801.6 284.9Q791.9 282.1 784.2 281.3Q776.5 280.5 759.7 283Q742.9 285.6 743.6 278.9Q744.2 272.2 755.1 243.8Q765.9 215.4 767.9 205.2Q770 195 770.6 179.6Q771.2 164.2 774.9 159.4Q778.6 154.6 783.9 151.9Q789.1 149.1 796.6 147.4Q804.2 145.7 808.7 142.4Q813.2 139.2 815.2 139.7Q817.3 140.2 821.2 143.3Q825.1 146.4 828.9 152.4Q832.6 158.4 839.9 163.4Q847.1 168.4 854.5 179.5Q862 190.5 864.6 197.6Q867.3 204.7 878.8 186.3Q890.3 167.8 901.6 141.1Q912.9 114.4 929.6 106.3Q946.2 98.2 948.1 99.9ZM456 104Q459.8 104.2 461.8 105.9Q463.8 107.7 473.3 127.2Q482.8 146.7 482.8 151.8Q482.9 156.9 479.7 164.5Q476.5 172 477.2 181Q477.9 189.9 475.2 194.4Q472.4 198.9 464.5 198.1Q456.7 197.3 452.7 194.8Q448.6 192.4 441.5 182.5Q434.4 172.6 432.4 172.5Q430.4 172.4 423.4 179.9Q416.4 187.4 410.6 191.6Q404.9 195.9 402.4 200.1Q399.8 204.3 395 227.5Q390.1 250.6 390.6 255.5Q391.1 260.4 393.6 268.4Q396 276.5 400.6 281.6Q405.2 286.8 414.9 287.8Q424.6 288.9 433.2 288.3Q441.8 287.8 443.3 285.5Q444.8 283.3 445.4 278.6Q446 274 445.4 269.8Q444.9 265.6 443.6 264.1Q442.4 262.6 429.7 263Q417 263.5 413.7 261.1Q410.3 258.7 409.9 242.1Q409.5 225.5 410.9 221.4Q412.2 217.2 415.1 215.9Q418.1 214.6 445.8 215Q473.5 215.5 481.4 212.1Q489.3 208.7 490.1 211.6Q490.9 214.4 489.8 215.9Q488.7 217.3 491.6 224.2Q494.5 231 491 241.6Q487.6 252.1 486.4 260Q485.2 268 487.2 289.9Q489.3 311.8 485.4 316.9Q481.5 322 468.5 318.5Q455.5 315 447.5 315.8Q439.5 316.5 432.5 323.2Q425.4 329.9 418.6 339.8Q411.8 349.8 405.7 349.4Q399.5 349 391.3 350.8Q383 352.5 375.5 351.7Q368.1 350.9 364.4 348.1Q360.6 345.4 358.4 341.6Q356.2 337.8 348.7 320.5Q341.2 303.3 338.2 291.6Q335.1 279.9 334.1 258Q333 236 335.5 228.2Q337.9 220.4 337.2 211.7Q336.5 203 337.8 197.8Q339.1 192.6 345.6 180.9Q352.2 169.2 364.6 152.8Q376.9 136.4 392.3 130.3Q407.7 124.2 423.9 120.4Q440.2 116.7 446.2 110.2Q452.2 103.7 456 104ZM1205.8 111.6Q1219.4 113.1 1246.2 121.6Q1273 130 1277.4 133.3Q1281.9 136.6 1303.8 160.4Q1325.8 184.2 1327.4 192.4Q1329 200.5 1329.4 220.4Q1329.8 240.3 1327.2 246.2Q1324.6 252.1 1314.1 260.9Q1303.6 269.6 1302.8 271.5Q1302 273.5 1312 292.5Q1321.9 311.6 1326.1 327.2Q1330.2 342.8 1338 360Q1345.8 377.2 1345.8 380Q1345.8 382.7 1343.2 381.4Q1340.6 380.1 1332.4 385.4Q1324.3 390.8 1319.4 391.4Q1314.5 392 1308.9 388.1Q1303.3 384.2 1300.1 383.4Q1297 382.5 1293.6 383.2Q1290.2 383.8 1287.6 381.4Q1284.9 379.1 1286.9 354.5Q1288.8 330 1287.3 321.1Q1285.8 312.2 1282.8 308.2Q1279.8 304.2 1267.7 303.3Q1255.7 302.3 1250.8 298Q1245.9 293.6 1242.6 297.5Q1239.3 301.3 1236.1 302.1Q1232.9 302.9 1212.3 302.9Q1191.6 302.9 1186.7 301.1Q1181.7 299.3 1178 293.5Q1174.2 287.8 1172.1 275.4Q1170 263 1170 235.3Q1170 207.5 1166 186.3Q1162 165 1162 146.3Q1162 127.5 1164.5 123.3Q1167 119 1179.6 114.6Q1192.2 110.2 1205.8 111.6ZM1360.3 124.9Q1367.9 125.1 1379.2 128Q1390.5 131 1414.3 131.5Q1438 132 1447.2 129.7Q1456.5 127.5 1476 128.8Q1495.5 130 1498.6 130.6Q1501.8 131.2 1504.2 133.6Q1506.6 135.9 1507.5 152.9Q1508.5 170 1508.2 175.7Q1507.9 181.4 1506.7 183.2Q1505.6 185.1 1476.1 184.6Q1446.6 184.1 1442.5 186.3Q1438.4 188.4 1434.8 192.1Q1431.3 195.8 1426.6 195.6Q1421.9 195.4 1420.7 200Q1419.5 204.5 1420.8 211.5Q1422.1 218.4 1424.6 220.6Q1427.2 222.8 1452.3 223.7Q1477.5 224.5 1482.4 226.1Q1487.3 227.7 1496.5 245.8Q1505.7 263.8 1505.3 268.1Q1504.9 272.4 1496.8 277.6Q1488.8 282.8 1475.7 284.4Q1462.5 286 1458 283.1Q1453.6 280.1 1449.2 282Q1444.9 283.9 1436.3 284.5Q1427.7 285.2 1426.4 288.1Q1425 291 1427.1 300.9Q1429.1 310.9 1431.1 312.6Q1433.1 314.4 1463.5 315.7Q1494 317 1502 315.8Q1510 314.5 1517.9 317.6Q1525.8 320.7 1526.9 325.4Q1528 330 1528 344.3Q1528 358.5 1526 366Q1524 373.5 1523.5 387.7Q1523 402 1517.5 406.8Q1512.1 411.6 1505.3 412.3Q1498.5 413 1484.8 410.8Q1471 408.5 1455.8 408.5Q1440.5 408.5 1433.8 407Q1427 405.5 1392.8 406Q1358.5 406.5 1351.9 403.1Q1345.2 399.8 1347.9 391.1Q1350.5 382.5 1348.5 370Q1346.5 357.5 1347.2 349.5Q1348 341.5 1343.2 324.8Q1338.5 308 1342.7 296.7Q1346.9 285.4 1347.5 262Q1348 238.5 1350 231Q1352 223.5 1348.5 207.2Q1345 191 1344.3 175Q1343.5 159 1345.3 144.1Q1347.1 129.1 1349.9 126.9Q1352.7 124.7 1360.3 124.9ZM299 132.7Q311.8 134.2 316.2 138.1Q320.6 141.9 323.2 147.8Q325.9 153.6 326.2 173Q326.5 192.5 328.5 200.5Q330.5 208.5 329.3 227.8Q328.2 247 330.3 287.3Q332.5 327.5 330.8 337.5Q329 347.5 332 362.5Q335 377.5 334.4 384.2Q333.8 390.8 330.6 393.1Q327.4 395.4 319.5 391.8Q311.5 388.2 306 391.3Q300.5 394.5 293.2 391.5Q285.9 388.6 281 389.8Q276.1 390.9 274.6 387.6Q273.1 384.4 273.5 284.5Q274 184.5 272 164Q270 143.5 271.7 140Q273.4 136.4 279.8 133.8Q286.2 131.2 299 132.7ZM1063.8 151.7Q1062.1 154.1 1061 169Q1060 184 1057.5 192.8Q1055.1 201.6 1054.1 213Q1053.1 224.4 1055.1 226.2Q1057.1 227.9 1068 228.9Q1078.9 229.9 1079.8 228Q1080.8 226.2 1073.1 187.7Q1065.5 149.2 1063.8 151.7ZM1237.8 186.6Q1237 190.5 1238 205.2Q1239.1 219.9 1240.2 224.6Q1241.2 229.3 1243.3 230.1Q1245.4 230.9 1255 225Q1264.6 219.1 1266.2 216.2Q1267.8 213.3 1267.9 209.4Q1268 205.5 1263 197.7Q1258.1 189.9 1253.2 187.1Q1248.3 184.2 1243.5 183.4Q1238.6 182.6 1237.8 186.6ZM646.3 287.1Q657.4 288.1 664.6 290.7Q671.8 293.2 676.8 296.4Q681.9 299.6 686.4 305.1Q691 310.5 694.4 322.3Q697.9 334.1 696.9 340.5Q695.9 346.9 693.7 353.2Q691.6 359.6 685.4 367.2Q679.1 374.9 687.5 383Q695.8 391.2 699.4 399.9Q703 408.5 701.9 422.5Q700.9 436.4 695.7 446.5Q690.6 456.6 681.2 464.2Q671.8 471.8 658.1 476.1Q644.5 480.5 630.8 479.2Q617.1 477.9 603.5 471Q589.9 464.1 585.1 456.7Q580.2 449.3 577.1 435.1Q574 421 574.6 413.5Q575.1 406.1 577.2 399.7Q579.3 393.3 587.1 384.2Q594.9 375 588.3 367.2Q581.7 359.3 578.9 353.1Q576.1 346.9 575.6 338.2Q575 329.5 577.7 321.7Q580.3 313.8 582.9 310.1Q585.4 306.4 591.8 301Q598.2 295.7 607.4 292.2Q616.7 288.7 625.9 287.4Q635.2 286.2 646.3 287.1ZM782.6 291.4Q792.9 293.1 803.2 298.3Q813.4 303.6 822.1 314.7Q830.8 325.7 837.1 339.9Q843.4 354.1 852.5 351Q861.5 348 866.6 348.4Q871.7 348.8 873.1 351.2Q874.5 353.5 874.3 364.1Q874.2 374.7 870 376Q865.9 377.4 864.2 380.2Q862.5 383 867.5 395.5Q872.5 408 872.1 414.2Q871.8 420.3 868.7 426.7Q865.6 433.1 860.2 437.5Q854.9 441.9 849.7 443.4Q844.5 445 838.9 444.7Q833.4 444.4 828.3 451.5Q823.1 458.6 815.1 465.1Q807 471.5 794.2 475.2Q781.5 479 774 479Q766.5 479 759.4 477.1Q752.2 475.3 745.3 471.5Q738.4 467.6 733.8 463Q729.1 458.4 724.1 451.2Q719 444 715.6 436.4Q712.2 428.8 709.6 419.9Q707.1 410.9 706.3 401.7Q705.5 392.5 706.3 374.3Q707.1 356.1 709.6 346.9Q712.2 337.7 716.7 328.9Q721.2 320.2 730.2 311.2Q739.2 302.2 749.4 297.2Q759.7 292.2 765.9 290.9Q772.2 289.7 782.6 291.4ZM931.5 308.1Q936.9 308.1 944.2 310.8Q951.6 313.4 955.8 316.9Q960.1 320.4 962 325.2Q964 330 962.7 331.7Q961.4 333.4 953.7 334.7Q946 336 940.9 332Q935.9 328.1 932.3 328.1Q928.6 328.1 926.7 329.7Q924.8 331.3 924.5 333.8Q924.2 336.3 926.4 338.8Q928.6 341.4 943.5 347.8Q958.3 354.2 961.9 360.4Q965.5 366.5 964.5 374.7Q963.4 382.9 959.9 388.4Q956.4 393.9 950 397.8Q943.7 401.7 938.1 402.8Q932.5 404 921.1 401.4Q909.7 398.8 905.7 395.3Q901.7 391.8 899.6 386.6Q897.5 381.5 897.7 377.9Q897.8 374.3 900 373Q902.1 371.6 909.2 371.7Q916.3 371.7 919.6 375.9Q922.9 380.1 926.2 381Q929.5 382 933.5 381.2Q937.5 380.5 939.6 377.9Q941.8 375.3 941.6 373.1Q941.5 371 939.6 369.1Q937.8 367.2 928.6 364.4Q919.3 361.7 914.4 358.6Q909.4 355.6 905.3 349Q901.1 342.4 901.1 334.8Q901.1 327.1 903.3 323Q905.4 318.9 909.1 315.9Q912.8 312.8 919.5 310.5Q926.2 308.2 931.5 308.1ZM1065 310.9Q1078.9 311.1 1083.1 313.4Q1087.4 315.6 1090.6 319.9Q1093.8 324.2 1094.9 328.4Q1096 332.5 1095.4 338.4Q1094.8 344.3 1088.4 354.7Q1082 365 1088.2 382.3Q1094.3 399.7 1093.8 401.5Q1093.3 403.3 1082.5 402.8Q1071.6 402.4 1066.7 389Q1061.8 375.7 1059.1 372.7Q1056.4 369.6 1055.2 371.1Q1054 372.5 1053.4 387.4Q1052.8 402.3 1046.9 403.1Q1041 404 1037.7 402.3Q1034.3 400.7 1034.2 357.1Q1034.1 313.6 1035.6 312.4Q1037.1 311.1 1044.1 310.9Q1051.2 310.7 1065 310.9ZM995.1 312.1Q1021.5 312 1025.6 313.4Q1029.7 314.8 1029.3 324.1Q1028.9 333.4 1018.5 334.7Q1008.1 336.1 1008 367.8Q1008 399.5 1007 401.2Q1005.9 402.9 998.5 403.5Q991 404 988.6 403.1Q986.2 402.3 986.1 369.9Q985.9 337.6 984.6 336.1Q983.4 334.6 974.8 333.7Q966.2 332.8 965.6 323.7Q965 314.6 966.9 313.4Q968.7 312.2 995.1 312.1ZM1121.3 312.1Q1140.5 312 1144.1 312.4Q1147.8 312.7 1149.3 314Q1150.8 315.2 1150.2 324.4Q1149.6 333.6 1136.1 334.1Q1122.6 334.6 1121.3 336.8Q1120 339 1120.1 342.5Q1120.1 345.9 1121.2 347.3Q1122.3 348.7 1131.7 348.8Q1141 349 1144.3 350.2Q1147.7 351.3 1147.1 359.5Q1146.6 367.6 1134.5 368Q1122.3 368.3 1121.2 373.7Q1120 379 1121.6 380.9Q1123.1 382.9 1136.6 383.4Q1150.1 383.9 1150.8 391.2Q1151.5 398.5 1150.5 400.7Q1149.5 403 1127 403.5Q1104.5 404 1101.9 403.1Q1099.2 402.3 1099.1 358.9Q1099 315.5 1100.6 313.9Q1102.2 312.2 1121.3 312.1ZM1188.3 312.1Q1208 312 1209.8 313.4Q1211.7 314.8 1211.4 324.2Q1211.1 333.6 1196.3 334.1Q1181.6 334.6 1180.1 337.8Q1178.5 341 1178.9 343.9Q1179.2 346.8 1180.5 347.8Q1181.7 348.8 1193.3 349.2Q1205 349.5 1206.6 350.7Q1208.2 351.8 1208.3 358.2Q1208.5 364.5 1207.5 366Q1206.6 367.6 1194.1 367.8Q1181.6 368.1 1180.6 370.6Q1179.5 373 1179.6 376.4Q1179.6 379.9 1181.2 381.3Q1182.7 382.8 1196.5 383.2Q1210.4 383.6 1210.7 392.1Q1211 400.5 1209.4 402.1Q1207.8 403.8 1186.9 403.9Q1166 404 1162.2 402.6Q1158.3 401.2 1158.7 358.8Q1159 316.5 1159.9 314.9Q1160.7 313.2 1164.7 312.7Q1168.7 312.2 1188.3 312.1ZM1247.3 312.1Q1273 312 1275.6 313.4Q1278.3 314.7 1277.8 323.8Q1277.4 332.9 1270 333.5Q1262.6 334.1 1260.4 335.4Q1258.1 336.6 1257.8 363.8Q1257.5 391 1256.5 397.2Q1255.4 403.4 1247.7 403.7Q1240 404 1238.3 402.7Q1236.6 401.4 1236.2 369.3Q1235.9 337.1 1234.4 335.6Q1232.8 334.2 1225.9 334.1Q1219 334 1217.7 333Q1216.4 332.1 1216.5 323.1Q1216.6 314.1 1219.2 313.2Q1221.7 312.2 1247.3 312.1ZM461 320.2Q467.3 321.2 473.2 324.5Q479.1 327.9 483.8 334.7Q488.5 341.5 490.2 348.3Q492 355 491.4 363.9Q490.8 372.8 486.8 381.6Q482.8 390.3 477.3 395.5Q471.8 400.8 465.4 402.6Q459 404.5 450.8 403.6Q442.7 402.8 437.7 399.8Q432.6 396.9 428.4 391.3Q424.2 385.8 422.2 375.9Q420.1 365.9 421.2 358.1Q422.2 350.2 426.8 340.8Q431.4 331.4 437.3 326.8Q443.2 322.2 449 320.7Q454.7 319.2 461 320.2ZM503 319.1Q508.4 319.1 510.9 321.1Q513.4 323.1 524 343.6Q534.6 364.2 534.9 342.4Q535.2 320.7 542.1 319.9Q549 319 550.8 320.5Q552.6 321.9 552.2 362.4Q551.8 402.8 544.3 402.5Q536.9 402.1 525.4 382.9Q513.9 363.7 513.4 382.7Q512.8 401.8 511.4 402.6Q510 403.5 503.1 402.9Q496.2 402.3 495.1 362.9Q494 323.5 495.9 321.4Q497.7 319.2 503 319.1ZM629.5 323Q624.8 324.3 622.4 326.4Q619.9 328.4 618.1 336.1Q616.2 343.8 621.2 349.3Q626.2 354.8 630.9 355.9Q635.5 357 640.2 356.4Q644.8 355.8 650.7 350.9Q656.6 346.1 657.7 343Q658.9 339.9 658.3 337.6Q657.8 335.2 652.5 329.7Q647.3 324.2 640.7 322.9Q634.1 321.6 629.5 323ZM766.3 331.8Q759.9 334.4 754.6 341.6Q749.3 348.8 746.7 359.2Q744 369.5 744 380.8Q744 392 745.6 400.6Q747.2 409.3 750.8 416.7Q754.4 424.1 759.6 428.4Q764.7 432.8 771.3 434.4Q778 436 784.8 433Q791.6 430.1 796 424.3Q800.5 418.5 802.2 412.5Q804 406.5 805 392.2Q806 378 803.9 368.1Q801.8 358.2 797.8 349.4Q793.8 340.7 789 336.5Q784.3 332.2 778.4 330.7Q772.6 329.1 766.3 331.8ZM1057.4 330.7Q1054.2 332.2 1054.2 340Q1054.2 347.8 1055.7 348.8Q1057.1 349.9 1062.8 349.4Q1068.4 348.9 1071.6 346.1Q1074.8 343.3 1074.8 338.5Q1074.8 333.7 1072.3 331.4Q1069.8 329.2 1065.2 329.2Q1060.6 329.1 1057.4 330.7ZM449.1 342.8Q444 346.5 441.8 355.2Q439.5 364 442.6 371.7Q445.6 379.4 448.7 381.6Q451.7 383.8 454.6 384.1Q457.5 384.5 460.5 383.3Q463.6 382.1 465.8 379.3Q468 376.5 469.9 371.4Q471.9 366.4 471.9 363Q472 359.5 469.7 352.1Q467.4 344.6 464.6 342.4Q461.8 340.2 457.9 339.7Q454.1 339.1 449.1 342.8ZM854.6 355.9Q847.6 358.6 842.9 365.9Q838.2 373.2 838.1 380.6Q838.1 387.9 842.5 399.7Q847 411.5 845.4 414.9Q843.9 418.4 838.4 421.4Q832.8 424.3 832.7 429.9Q832.6 435.4 834.1 437.2Q835.6 438.9 841.5 438.9Q847.4 438.9 851.7 436.9Q856 435 861.1 427.9Q866.3 420.8 866.1 412.2Q865.9 403.6 861.5 393.1Q857 382.5 858.7 378.7Q860.4 374.9 864.6 371.6Q868.8 368.3 868.9 363.2Q869 358 868.1 356.1Q867.3 354.2 864.4 353.7Q861.6 353.1 854.6 355.9ZM631.3 397.8Q624.4 400.4 620.2 405.7Q616 411 617.4 419.4Q618.7 427.8 621.7 431.3Q624.7 434.8 629.1 436.6Q633.5 438.5 643.3 436Q653.1 433.6 656 430.3Q659 427 660.7 422Q662.5 417 661.6 412.6Q660.8 408.2 657.6 404.4Q654.4 400.6 650.9 398.6Q647.4 396.6 642.8 395.8Q638.1 395.1 631.3 397.8Z"></path>
</svg>